<?xml version="1.0" encoding="UTF-8" standalone="no"?>
<!-- Created with Inkscape (http://www.inkscape.org/) -->

<svg
   width="3840"
   height="2160"
   viewBox="0 0 3840 2160"
   version="1.1"
   id="svg5"
   sodipodi:docname="/tmp/ink_ext_XXXXXX.svgXUF2Y1"
   xml:space="preserve"
   inkscape:export-filename="error-404.svg"
   inkscape:export-xdpi="96"
   inkscape:export-ydpi="96"
   xmlns:inkscape="http://www.inkscape.org/namespaces/inkscape"
   xmlns:sodipodi="http://sodipodi.sourceforge.net/DTD/sodipodi-0.dtd"
   xmlns="http://www.w3.org/2000/svg"
   xmlns:svg="http://www.w3.org/2000/svg"><sodipodi:namedview
     id="namedview7"
     pagecolor="#ffffff"
     bordercolor="#000000"
     borderopacity="0.25"
     inkscape:showpageshadow="2"
     inkscape:pageopacity="0.0"
     inkscape:pagecheckerboard="0"
     inkscape:deskcolor="#d1d1d1"
     inkscape:document-units="px"
     showgrid="true"
     inkscape:zoom="0.35338542"
     inkscape:cx="1921.4149"
     inkscape:cy="1080.9727"
     inkscape:window-width="1920"
     inkscape:window-height="1011"
     inkscape:window-x="0"
     inkscape:window-y="0"
     inkscape:window-maximized="1"
     inkscape:current-layer="layer1"><inkscape:grid
       type="xygrid"
       id="grid509" /></sodipodi:namedview><defs
     id="defs2"><style
       id="style523"><![CDATA[
.error-404 {
  fill:#000000;
}
]]></style></defs><g
     inkscape:label="Layer 1"
     inkscape:groupmode="layer"
     id="layer1"><g
       id="g6629"
       transform="matrix(-2.6117825,0,0,2.8324844,2266.1621,-523.85603)"
       style="fill:#595959;fill-opacity:1"><g
         id="g6597"
         style="fill:#595959;fill-opacity:1"><path
           d="M 990,767 H 10 L 58.6,682.6 210,420.4 c 26.8,-46.3 70.5,-46.3 97.2,0 0,0 35.2,60.9 39.4,68 C 366.7,453.6 474,267.7 474,267.7 c 26.9,-46.3 70.5,-46.3 97.3,0 L 784.4,637 c 11,-19.1 21.8,-37.8 30.1,-52.4 19.4,-33.4 50.9,-33.4 70.3,0 19.3,33.6 50.9,88.3 70.2,121.6 z"
           id="path6595"
           style="fill:#595959;fill-opacity:1" /></g><g
         id="g6599"
         style="fill:#595959;fill-opacity:1" /><g
         id="g6601"
         style="fill:#595959;fill-opacity:1" /><g
         id="g6603"
         style="fill:#595959;fill-opacity:1" /><g
         id="g6605"
         style="fill:#595959;fill-opacity:1" /><g
         id="g6607"
         style="fill:#595959;fill-opacity:1" /><g
         id="g6609"
         style="fill:#595959;fill-opacity:1" /><g
         id="g6611"
         style="fill:#595959;fill-opacity:1" /><g
         id="g6613"
         style="fill:#595959;fill-opacity:1" /><g
         id="g6615"
         style="fill:#595959;fill-opacity:1" /><g
         id="g6617"
         style="fill:#595959;fill-opacity:1" /><g
         id="g6619"
         style="fill:#595959;fill-opacity:1" /><g
         id="g6621"
         style="fill:#595959;fill-opacity:1" /><g
         id="g6623"
         style="fill:#595959;fill-opacity:1" /><g
         id="g6625"
         style="fill:#595959;fill-opacity:1" /><g
         id="g6627"
         style="fill:#595959;fill-opacity:1" /></g><path
       d="m 1569.5485,1490.2045 c 0,4.1355 -1.1246,7.7051 -3.3419,10.7088 -2.2172,3.0037 -4.8522,4.5273 -7.9049,4.5273 h -81.2022 c 0.1286,2.6991 0.482,9.6206 1.0605,20.8519 0.5784,11.1877 0.8676,19.8071 0.8676,25.8145 0,3.9614 -1.0604,7.3569 -3.1491,10.0994 -2.0887,2.7426 -4.6273,4.1791 -7.5515,4.1791 h -56.2342 c -2.9241,0 -5.4628,-1.393 -7.5514,-4.1791 -2.1208,-2.786 -3.1491,-6.138 -3.1491,-10.0994 0,-6.051 0.2892,-14.6268 0.8676,-25.8145 0.5784,-11.1877 0.9318,-18.1528 1.0604,-20.8519 h -81.2022 c -3.0526,0 -5.6876,-1.5236 -7.9049,-4.5273 -2.2172,-3.0037 -3.3419,-6.5733 -3.3419,-10.7088 0,-4.1356 1.1247,-7.7052 3.3419,-10.7089 l 70.6302,-95.9446 h -40.2316 c -3.0527,0 -5.6877,-1.5236 -7.9049,-4.5273 -2.2172,-3.0037 -3.3419,-6.5734 -3.3419,-10.7089 0,-4.1355 1.1247,-7.7052 3.3419,-10.7089 l 70.6301,-95.9445 h -34.6081 c -3.0527,0 -5.6877,-1.5237 -7.9049,-4.5274 -2.2173,-3.0037 -3.342,-6.5733 -3.342,-10.7088 0,-4.1356 1.1247,-7.7052 3.342,-10.7089 l 67.481,-91.4173 c 2.2172,-3.0037 4.8522,-4.5273 7.9049,-4.5273 3.0527,0 5.6877,1.5236 7.9049,4.5273 l 67.481,91.4173 c 2.2173,3.0037 3.342,6.5733 3.342,10.7089 0,4.1355 -1.1247,7.7051 -3.342,10.7088 -2.2172,3.0037 -4.8522,4.5274 -7.9048,4.5274 h -34.6082 l 70.6301,95.9445 c 2.2173,3.0037 3.342,6.5734 3.342,10.7089 0,4.1355 -1.1247,7.7052 -3.342,10.7089 -2.2172,3.0037 -4.8521,4.5273 -7.9049,4.5273 h -40.2315 l 70.6301,95.9446 c 2.2173,3.0037 3.3419,6.5733 3.3419,10.7089 z"
       id="path5829"
       style="fill:#195e23;fill-opacity:1;stroke-width:0.374012" /><path
       d="m 1365.3186,1515.086 c 0,5.1425 -1.7163,9.5812 -5.1,13.3163 -3.3837,3.735 -7.4048,5.6296 -12.0635,5.6296 h -123.9205 c 0.1962,3.3562 0.7356,11.963 1.6183,25.9289 0.8827,13.9117 1.3241,24.6297 1.3241,32.0998 0,4.926 -1.6183,9.1482 -4.8058,12.5585 -3.1875,3.4103 -7.0616,5.1966 -11.5241,5.1966 h -85.8175 c -4.4625,0 -8.3365,-1.7322 -11.524,-5.1966 -3.2366,-3.4644 -4.8058,-7.6325 -4.8058,-12.5585 0,-7.5242 0.4413,-18.1881 1.324,-32.0998 0.8827,-13.9117 1.4221,-22.5727 1.6183,-25.9289 H 987.72166 c -4.6586,0 -8.6798,-1.8946 -12.0635,-5.6296 -3.3836,-3.7351 -5.1,-8.1738 -5.1,-13.3163 0,-5.1425 1.7164,-9.5812 5.1,-13.3163 L 1083.445,1382.4644 h -61.3963 c -4.6586,0 -8.6798,-1.8946 -12.0635,-5.6296 -3.3836,-3.7351 -5.1,-8.1739 -5.1,-13.3163 0,-5.1425 1.7164,-9.5813 5.1,-13.3163 l 107.7867,-119.3053 h -52.8144 c -4.6587,0 -8.6799,-1.8946 -12.0635,-5.6296 -3.3837,-3.7351 -5.1,-8.1739 -5.1,-13.3163 0,-5.1425 1.7163,-9.5813 5.1,-13.3164 l 102.9809,-113.6755 c 3.3836,-3.7351 7.4048,-5.6297 12.0635,-5.6297 4.6586,0 8.6798,1.8946 12.0634,5.6297 l 102.981,113.6755 c 3.3837,3.7351 5.1001,8.1739 5.1001,13.3164 0,5.1424 -1.7164,9.5812 -5.1001,13.3163 -3.3836,3.735 -7.4048,5.6296 -12.0634,5.6296 h -52.8146 l 107.7868,119.3053 c 3.3837,3.735 5.1,8.1738 5.1,13.3163 0,5.1424 -1.7163,9.5812 -5.1,13.3163 -3.3837,3.735 -7.4048,5.6296 -12.0635,5.6296 h -61.3963 l 107.7868,119.3053 c 3.3837,3.7351 5.1,8.1738 5.1,13.3163 z"
       id="path6208"
       style="fill:#195e23;fill-opacity:1;stroke-width:0.51522" /><path
       d="m 1854.4271,1484.6423 c 0,7.769 -1.5198,14.4748 -4.5163,20.1177 -2.9965,5.6427 -6.5574,8.5049 -10.6829,8.5049 H 1729.489 c 0.1737,5.0705 0.6514,18.0733 1.4331,39.1724 0.7816,21.0172 1.1725,37.2095 1.1725,48.495 0,7.442 -1.4331,13.8207 -4.2558,18.9729 -2.8227,5.1521 -6.2535,7.8508 -10.2053,7.8508 h -75.9964 c -3.9518,0 -7.3825,-2.6169 -10.2052,-7.8508 -2.8662,-5.2339 -4.2558,-11.5309 -4.2558,-18.9729 0,-11.3672 0.3908,-27.4778 1.1725,-48.495 0.7817,-21.0173 1.2593,-34.1019 1.4331,-39.1724 h -109.7389 c -4.1255,0 -7.6865,-2.8622 -10.683,-8.5049 -2.9963,-5.6429 -4.5163,-12.3487 -4.5163,-20.1177 0,-7.7691 1.52,-14.4749 4.5163,-20.1178 l 95.4516,-180.2415 h -54.37 c -4.1255,0 -7.6865,-2.8623 -10.683,-8.505 -2.9963,-5.6428 -4.5163,-12.3488 -4.5163,-20.1177 0,-7.7691 1.52,-14.475 4.5163,-20.1177 l 95.4516,-180.2415 h -46.7704 c -4.1255,0 -7.6865,-2.8621 -10.6829,-8.505 -2.9965,-5.6428 -4.5164,-12.3486 -4.5164,-20.1177 0,-7.7691 1.5199,-14.4749 4.5164,-20.1177 l 91.1957,-171.73645 c 2.9964,-5.64283 6.5574,-8.50512 10.683,-8.50512 4.1254,0 7.6864,2.86229 10.6828,8.50512 l 91.1957,171.73645 c 2.9965,5.6428 4.5165,12.3486 4.5165,20.1177 0,7.7691 -1.52,14.4749 -4.5165,20.1177 -2.9963,5.6429 -6.5573,8.505 -10.6828,8.505 h -46.7704 l 95.4515,180.2415 c 2.9965,5.6427 4.5164,12.3486 4.5164,20.1177 0,7.7689 -1.5199,14.4749 -4.5164,20.1177 -2.9965,5.6427 -6.5574,8.505 -10.6829,8.505 h -54.3701 l 95.4516,180.2415 c 2.9965,5.6429 4.5163,12.3487 4.5163,20.1178 z"
       id="path6210"
       style="fill:#195e23;fill-opacity:1;stroke-width:0.595935"
       inkscape:transform-center-x="-315.84494"
       inkscape:transform-center-y="-263.63689" /><path
       d="m 2665.2007,1519.2643 c 0,5.1425 -1.7163,9.5812 -5.1,13.3163 -3.3837,3.735 -7.4048,5.6296 -12.0635,5.6296 h -123.9205 c 0.1962,3.3562 0.7356,11.963 1.6183,25.9289 0.8827,13.9117 1.3241,24.6297 1.3241,32.0998 0,4.926 -1.6183,9.1482 -4.8058,12.5585 -3.1875,3.4103 -7.0616,5.1966 -11.5241,5.1966 h -85.8175 c -4.4625,0 -8.3365,-1.7322 -11.524,-5.1966 -3.2366,-3.4644 -4.8058,-7.6325 -4.8058,-12.5585 0,-7.5242 0.4413,-18.1881 1.324,-32.0998 0.8827,-13.9117 1.4221,-22.5727 1.6183,-25.9289 h -123.9205 c -4.6586,0 -8.6798,-1.8946 -12.0635,-5.6296 -3.3836,-3.7351 -5.1,-8.1738 -5.1,-13.3163 0,-5.1425 1.7164,-9.5812 5.1,-13.3163 l 107.7868,-119.3053 h -61.3963 c -4.6586,0 -8.6798,-1.8946 -12.0635,-5.6296 -3.3836,-3.7351 -5.1,-8.1739 -5.1,-13.3163 0,-5.1425 1.7164,-9.5813 5.1,-13.3163 l 107.7868,-119.3052 h -52.8145 c -4.6587,0 -8.6799,-1.8946 -12.0635,-5.6297 -3.3837,-3.7351 -5.1,-8.1738 -5.1,-13.3163 0,-5.1425 1.7163,-9.5812 5.1,-13.3163 l 102.981,-113.6756 c 3.3836,-3.7351 7.4048,-5.6297 12.0635,-5.6297 4.6586,0 8.6798,1.8946 12.0634,5.6297 l 102.981,113.6756 c 3.3837,3.7351 5.1001,8.1738 5.1001,13.3163 0,5.1425 -1.7164,9.5812 -5.1001,13.3163 -3.3836,3.7351 -7.4048,5.6297 -12.0634,5.6297 h -52.8146 l 107.7868,119.3052 c 3.3837,3.735 5.1,8.1738 5.1,13.3163 0,5.1424 -1.7163,9.5812 -5.1,13.3163 -3.3837,3.735 -7.4048,5.6296 -12.0635,5.6296 h -61.3963 l 107.7868,119.3053 c 3.3837,3.7351 5.1,8.1738 5.1,13.3163 z"
       id="path6212"
       style="fill:#195e23;fill-opacity:1;stroke-width:0.51522" /><path
       d="m 2507.1757,1483.822 c 0,6.6939 -1.7834,12.4716 -5.2994,17.3336 -3.5161,4.8617 -7.6945,7.3279 -12.5355,7.3279 h -128.7679 c 0.2039,4.3687 0.7644,15.572 1.6816,33.7511 0.9172,18.1086 1.3758,32.06 1.3758,41.7837 0,6.412 -1.6815,11.908 -4.9937,16.3471 -3.3123,4.4391 -7.3378,6.7643 -11.9749,6.7643 h -89.1746 c -4.637,0 -8.6625,-2.2548 -11.9747,-6.7643 -3.3632,-4.5095 -4.9938,-9.9351 -4.9938,-16.3471 0,-9.7941 0.4586,-23.6751 1.3758,-41.7837 0.9172,-18.1086 1.4777,-29.3824 1.6815,-33.7511 H 2114.808 c -4.8408,0 -9.0193,-2.4662 -12.5354,-7.3279 -3.516,-4.862 -5.2995,-10.6397 -5.2995,-17.3336 0,-6.6939 1.7835,-12.4716 5.2995,-17.3336 l 112.0032,-155.2973 h -63.798 c -4.8409,0 -9.0193,-2.4661 -12.5354,-7.3279 -3.516,-4.8619 -5.2995,-10.6398 -5.2995,-17.3336 0,-6.6938 1.7835,-12.4717 5.2995,-17.3335 l 112.0032,-155.2973 h -54.8805 c -4.8409,0 -9.0195,-2.4661 -12.5354,-7.328 -3.516,-4.8618 -5.2995,-10.6397 -5.2995,-17.3335 0,-6.6939 1.7835,-12.4717 5.2995,-17.3336 l 107.0094,-147.96922 c 3.5159,-4.86184 7.6944,-7.328 12.5354,-7.328 4.8408,0 9.0193,2.46616 12.5353,7.328 l 107.0094,147.96922 c 3.516,4.8619 5.2996,10.6397 5.2996,17.3336 0,6.6938 -1.7836,12.4717 -5.2996,17.3335 -3.516,4.8619 -7.6945,7.328 -12.5353,7.328 h -54.8806 l 112.0031,155.2973 c 3.5161,4.8618 5.2995,10.6397 5.2995,17.3335 0,6.6938 -1.7834,12.4717 -5.2995,17.3336 -3.516,4.8618 -7.6944,7.3279 -12.5353,7.3279 h -63.798 l 112.0032,155.2973 c 3.516,4.862 5.2994,10.6397 5.2994,17.3336 z"
       id="path6214"
       style="fill:#195e23;fill-opacity:1;stroke-width:0.599207" /><path
       d="m 2167.4483,1524.7139 c 0,5.1425 -1.7163,9.5812 -5.1,13.3163 -3.3837,3.735 -7.4048,5.6296 -12.0635,5.6296 h -123.9205 c 0.1962,3.3562 0.7356,11.963 1.6183,25.9289 0.8827,13.9117 1.3241,24.6297 1.3241,32.0998 0,4.926 -1.6183,9.1482 -4.8058,12.5585 -3.1875,3.4103 -7.0616,5.1966 -11.5241,5.1966 h -85.8175 c -4.4625,0 -8.3365,-1.7322 -11.524,-5.1966 -3.2366,-3.4644 -4.8058,-7.6325 -4.8058,-12.5585 0,-7.5242 0.4413,-18.1881 1.324,-32.0998 0.8827,-13.9117 1.4221,-22.5727 1.6183,-25.9289 h -123.9205 c -4.6586,0 -8.6798,-1.8946 -12.0635,-5.6296 -3.3836,-3.7351 -5.1,-8.1738 -5.1,-13.3163 0,-5.1425 1.7164,-9.5812 5.1,-13.3163 l 107.7868,-119.3053 h -61.3963 c -4.6586,0 -8.6798,-1.8946 -12.0635,-5.6296 -3.3836,-3.7351 -5.1,-8.1739 -5.1,-13.3163 0,-5.1425 1.7164,-9.5813 5.1,-13.3163 l 107.7868,-119.3053 h -52.8145 c -4.6587,0 -8.6799,-1.8946 -12.0635,-5.6296 -3.3837,-3.7351 -5.1,-8.1739 -5.1,-13.3163 0,-5.1425 1.7163,-9.5813 5.1,-13.3163 l 102.981,-113.6757 c 3.3836,-3.735 7.4048,-5.6296 12.0635,-5.6296 4.6586,0 8.6798,1.8946 12.0634,5.6296 l 102.981,113.6757 c 3.3837,3.735 5.1001,8.1738 5.1001,13.3163 0,5.1424 -1.7164,9.5812 -5.1001,13.3163 -3.3836,3.735 -7.4048,5.6296 -12.0634,5.6296 h -52.8146 l 107.7868,119.3053 c 3.3837,3.735 5.1,8.1738 5.1,13.3163 0,5.1424 -1.7163,9.5812 -5.1,13.3163 -3.3837,3.735 -7.4048,5.6296 -12.0635,5.6296 h -61.3963 l 107.7868,119.3053 c 3.3837,3.7351 5.1,8.1738 5.1,13.3163 z"
       id="path6216"
       style="fill:#195e23;fill-opacity:1;stroke-width:0.51522" /><path
       d="m 966.19914,1532.0313 c 0,2.3132 -0.8756,4.3098 -2.6016,5.9899 -1.7261,1.6801 -3.7774,2.5323 -6.1539,2.5323 h -63.214 c 0.1001,1.5097 0.3752,5.3812 0.8255,11.6633 0.4503,6.2577 0.6755,11.0789 0.6755,14.439 0,2.2158 -0.8256,4.1151 -2.4516,5.6491 -1.626,1.534 -3.6022,2.3375 -5.8786,2.3375 h -43.777 c -2.2764,0 -4.2526,-0.7792 -5.8786,-2.3375 -1.6511,-1.5584 -2.4516,-3.4333 -2.4516,-5.6491 0,-3.3845 0.2252,-8.1813 0.6754,-14.439 0.4503,-6.2577 0.7255,-10.1536 0.8256,-11.6633 h -63.2141 c -2.3764,0 -4.4277,-0.8522 -6.1538,-2.5323 -1.726,-1.6801 -2.6016,-3.6767 -2.6016,-5.9899 0,-2.3131 0.8756,-4.3097 2.6016,-5.9899 l 54.984,-53.6655 h -31.3194 c -2.3764,0 -4.4277,-0.8523 -6.1538,-2.5323 -1.726,-1.6801 -2.6016,-3.6768 -2.6016,-5.9899 0,-2.3132 0.8756,-4.3099 2.6016,-5.9899 l 54.984,-53.6656 h -26.9416 c -2.3765,0 -4.4278,-0.8522 -6.1538,-2.5323 -1.7261,-1.6801 -2.6016,-3.6768 -2.6016,-5.9899 0,-2.3132 0.8755,-4.3098 2.6016,-5.9899 l 52.5324,-51.1333 c 1.726,-1.6801 3.7773,-2.5323 6.1538,-2.5323 2.3764,0 4.4277,0.8522 6.1538,2.5323 l 52.5324,51.1333 c 1.7261,1.6801 2.6016,3.6767 2.6016,5.9899 0,2.3131 -0.8755,4.3098 -2.6016,5.9899 -1.726,1.6801 -3.7773,2.5323 -6.1538,2.5323 h -26.9416 l 54.9839,53.6656 c 1.7261,1.68 2.6016,3.6767 2.6016,5.9899 0,2.3131 -0.8755,4.3098 -2.6016,5.9899 -1.726,1.68 -3.7773,2.5323 -6.1538,2.5323 h -31.3193 l 54.984,53.6655 c 1.726,1.6802 2.6016,3.6768 2.6016,5.9899 z"
       id="path6218"
       style="fill:#195e23;fill-opacity:1;stroke-width:0.2468" /><path
       d="m 3107.5625,1530.6387 c 0,5.1425 -1.7163,9.5812 -5.1,13.3163 -3.3837,3.735 -7.4048,5.6296 -12.0635,5.6296 h -123.9205 c 0.1962,3.3562 0.7356,11.963 1.6183,25.9289 0.8827,13.9117 1.3241,24.6297 1.3241,32.0998 0,4.926 -1.6183,9.1482 -4.8058,12.5585 -3.1875,3.4103 -7.0616,5.1966 -11.5241,5.1966 h -85.8175 c -4.4625,0 -8.3365,-1.7322 -11.524,-5.1966 -3.2366,-3.4644 -4.8058,-7.6325 -4.8058,-12.5585 0,-7.5242 0.4413,-18.1881 1.324,-32.0998 0.8827,-13.9117 1.4221,-22.5727 1.6183,-25.9289 h -123.9205 c -4.6586,0 -8.6798,-1.8946 -12.0635,-5.6296 -3.3836,-3.7351 -5.1,-8.1738 -5.1,-13.3163 0,-5.1425 1.7164,-9.5812 5.1,-13.3163 l 107.7868,-119.3053 h -61.3963 c -4.6586,0 -8.6798,-1.8946 -12.0635,-5.6296 -3.3836,-3.7351 -5.1,-8.1739 -5.1,-13.3163 0,-5.1425 1.7164,-9.5813 5.1,-13.3163 l 107.7868,-119.3053 h -52.8145 c -4.6587,0 -8.6799,-1.8946 -12.0635,-5.6296 -3.3837,-3.7351 -5.1,-8.1739 -5.1,-13.3163 0,-5.1425 1.7163,-9.5813 5.1,-13.3163 l 102.981,-113.6757 c 3.3836,-3.735 7.4048,-5.6296 12.0635,-5.6296 4.6586,0 8.6798,1.8946 12.0634,5.6296 l 102.981,113.6757 c 3.3837,3.735 5.1001,8.1738 5.1001,13.3163 0,5.1424 -1.7164,9.5812 -5.1001,13.3163 -3.3836,3.735 -7.4048,5.6296 -12.0634,5.6296 h -52.8146 l 107.7868,119.3053 c 3.3837,3.735 5.1,8.1738 5.1,13.3163 0,5.1424 -1.7163,9.5812 -5.1,13.3163 -3.3837,3.735 -7.4048,5.6296 -12.0635,5.6296 h -61.3963 l 107.7868,119.3053 c 3.3837,3.7351 5.1,8.1738 5.1,13.3163 z"
       id="path6220"
       style="fill:#195e23;fill-opacity:1;stroke-width:0.51522" /><path
       d="m 3524.3679,1570.2114 c 0,5.1425 -1.7163,9.5812 -5.1,13.3163 -3.3837,3.735 -7.4048,5.6296 -12.0635,5.6296 h -123.9205 c 0.1962,3.3562 0.7356,11.963 1.6183,25.9289 0.8827,13.9117 1.3241,24.6297 1.3241,32.0998 0,4.926 -1.6183,9.1482 -4.8058,12.5585 -3.1875,3.4103 -7.0616,5.1966 -11.5241,5.1966 h -85.8175 c -4.4625,0 -8.3365,-1.7322 -11.524,-5.1966 -3.2366,-3.4644 -4.8058,-7.6325 -4.8058,-12.5585 0,-7.5242 0.4413,-18.1881 1.324,-32.0998 0.8827,-13.9117 1.4221,-22.5727 1.6183,-25.9289 h -123.9205 c -4.6586,0 -8.6798,-1.8946 -12.0635,-5.6296 -3.3836,-3.7351 -5.1,-8.1738 -5.1,-13.3163 0,-5.1425 1.7164,-9.5812 5.1,-13.3163 l 107.7868,-119.3053 h -61.3963 c -4.6586,0 -8.6798,-1.8946 -12.0635,-5.6296 -3.3836,-3.7351 -5.1,-8.1739 -5.1,-13.3163 0,-5.1425 1.7164,-9.5813 5.1,-13.3163 l 107.7868,-119.3053 h -52.8145 c -4.6587,0 -8.6799,-1.8946 -12.0635,-5.6296 -3.3837,-3.7351 -5.1,-8.1739 -5.1,-13.3163 0,-5.1425 1.7163,-9.5813 5.1,-13.3163 l 102.981,-113.6757 c 3.3836,-3.735 7.4048,-5.6296 12.0635,-5.6296 4.6586,0 8.6798,1.8946 12.0634,5.6296 l 102.981,113.6757 c 3.3837,3.735 5.1001,8.1738 5.1001,13.3163 0,5.1424 -1.7164,9.5812 -5.1001,13.3163 -3.3836,3.735 -7.4048,5.6296 -12.0634,5.6296 h -52.8146 l 107.7868,119.3053 c 3.3837,3.735 5.1,8.1738 5.1,13.3163 0,5.1424 -1.7163,9.5812 -5.1,13.3163 -3.3837,3.735 -7.4048,5.6296 -12.0635,5.6296 h -61.3963 l 107.7868,119.3053 c 3.3837,3.7351 5.1,8.1738 5.1,13.3163 z"
       id="path6222"
       style="fill:#195e23;fill-opacity:1;stroke-width:0.51522" /><path
       d="m 2850.3959,1556.4502 c 0,3.5367 -1.1159,6.5894 -3.3159,9.1581 -2.2,2.5687 -4.8144,3.8717 -7.8434,3.8717 h -80.5707 c 0.1276,2.3082 0.4783,8.2274 1.0522,17.8322 0.5739,9.5676 0.8609,16.9387 0.8609,22.0762 0,3.3878 -1.0522,6.2915 -3.1246,8.6369 -2.0725,2.3454 -4.5913,3.5739 -7.4928,3.5739 h -55.7968 c -2.9014,0 -5.4202,-1.1913 -7.4927,-3.5739 -2.1043,-2.3826 -3.1246,-5.2491 -3.1246,-8.6369 0,-5.1747 0.2869,-12.5086 0.8608,-22.0762 0.5739,-9.5675 0.9246,-15.524 1.0522,-17.8322 h -80.5706 c -3.029,0 -5.6435,-1.303 -7.8435,-3.8717 -2.1999,-2.5687 -3.3159,-5.6214 -3.3159,-9.1581 0,-3.5366 1.116,-6.5893 3.3159,-9.158 l 70.0809,-82.0505 h -39.9187 c -3.0289,0 -5.6434,-1.303 -7.8434,-3.8716 -2.2,-2.5688 -3.316,-5.6215 -3.316,-9.1581 0,-3.5367 1.116,-6.5894 3.316,-9.1581 l 70.0808,-82.0505 h -34.3389 c -3.029,0 -5.6435,-1.303 -7.8435,-3.8717 -2.2,-2.5687 -3.3159,-5.6214 -3.3159,-9.158 0,-3.5367 1.1159,-6.5894 3.3159,-9.1581 l 66.9562,-78.1788 c 2.2,-2.5687 4.8145,-3.8717 7.8435,-3.8717 3.0289,0 5.6434,1.303 7.8433,3.8717 l 66.9562,78.1788 c 2.2,2.5687 3.316,5.6214 3.316,9.1581 0,3.5366 -1.116,6.5893 -3.316,9.158 -2.1999,2.5687 -4.8144,3.8717 -7.8433,3.8717 h -34.3391 l 70.0809,82.0505 c 2.2,2.5687 3.3159,5.6214 3.3159,9.1581 0,3.5366 -1.1159,6.5893 -3.3159,9.1581 -2.2,2.5686 -4.8145,3.8716 -7.8435,3.8716 h -39.9186 l 70.0808,82.0505 c 2.2,2.5687 3.3159,5.6214 3.3159,9.158 z"
       id="path6224"
       style="fill:#195e23;fill-opacity:1;stroke-width:0.344525" /><path
       d="m 3241.5788,1474.5167 c 0,8.221 -1.195,15.3168 -3.551,21.2879 -2.356,5.9708 -5.1557,8.9996 -8.3994,8.9996 h -86.2822 c 0.1366,5.3653 0.5122,19.1244 1.1268,41.4507 0.6146,22.2397 0.9219,39.3738 0.9219,51.3157 0,7.8748 -1.1268,14.6246 -3.3461,20.0764 -2.2194,5.4518 -4.9168,8.3074 -8.0239,8.3074 h -59.7522 c -3.1071,0 -5.8044,-2.7691 -8.0238,-8.3074 -2.2536,-5.5383 -3.3461,-12.2016 -3.3461,-20.0764 0,-12.0284 0.3072,-29.076 0.9218,-51.3157 0.6146,-22.2396 0.9902,-36.0854 1.1268,-41.4507 h -86.2822 c -3.2436,0 -6.0435,-3.0288 -8.3994,-8.9996 -2.3559,-5.9711 -3.551,-13.0669 -3.551,-21.2879 0,-8.2209 1.1951,-15.3167 3.551,-21.2878 l 75.0487,-190.7249 h -42.7484 c -3.2436,0 -6.0435,-3.0288 -8.3995,-8.9997 -2.3559,-5.971 -3.5509,-13.067 -3.5509,-21.2878 0,-8.2209 1.195,-15.3169 3.5509,-21.2878 l 75.0488,-190.7249 h -36.7732 c -3.2437,0 -6.0435,-3.0288 -8.3994,-8.9997 -2.356,-5.971 -3.551,-13.06701 -3.551,-21.2878 0,-8.22095 1.195,-15.31695 3.551,-21.28783 l 71.7026,-181.72526 c 2.3559,-5.97088 5.1557,-8.99964 8.3994,-8.99964 3.2437,0 6.0435,3.02876 8.3994,8.99964 l 71.7026,181.72526 c 2.356,5.97088 3.5511,13.06688 3.5511,21.28783 0,8.22079 -1.1951,15.3168 -3.5511,21.2878 -2.3559,5.9709 -5.1557,8.9997 -8.3994,8.9997 h -36.7732 l 75.0487,190.7249 c 2.356,5.9709 3.551,13.0669 3.551,21.2878 0,8.2208 -1.195,15.3168 -3.551,21.2878 -2.3559,5.9709 -5.1557,8.9997 -8.3994,8.9997 h -42.7484 l 75.0487,190.7249 c 2.356,5.9711 3.551,13.0669 3.551,21.2878 z"
       id="path6226"
       style="fill:#195e23;fill-opacity:1;stroke-width:0.54357" /><path
       d="m 3704.8433,1589.1762 c 0,3.2987 -1.2434,6.1459 -3.6946,8.5418 -2.4513,2.3959 -5.3644,3.6112 -8.7393,3.6112 h -89.7729 c 0.1421,2.1528 0.5329,7.6737 1.1723,16.6322 0.6395,8.9238 0.9593,15.7989 0.9593,20.5907 0,3.1598 -1.1724,5.8682 -3.4815,8.0557 -2.3092,2.1876 -5.1157,3.3334 -8.3486,3.3334 h -62.1695 c -3.2329,0 -6.0393,-1.1111 -8.3485,-3.3334 -2.3447,-2.2223 -3.4815,-4.8959 -3.4815,-8.0557 0,-4.8265 0.3197,-11.6669 0.9592,-20.5907 0.6394,-8.9237 1.0302,-14.4794 1.1723,-16.6322 h -89.7729 c -3.3749,0 -6.288,-1.2153 -8.7393,-3.6112 -2.4512,-2.3959 -3.6946,-5.2431 -3.6946,-8.5418 0,-3.2987 1.2434,-6.1459 3.6946,-8.5418 l 78.0851,-76.5291 h -44.4779 c -3.3749,0 -6.288,-1.2153 -8.7393,-3.6112 -2.4512,-2.3959 -3.6947,-5.2432 -3.6947,-8.5418 0,-3.2987 1.2435,-6.146 3.6947,-8.5418 l 78.085,-76.5291 h -38.2609 c -3.375,0 -6.2881,-1.2153 -8.7393,-3.6112 -2.4513,-2.3959 -3.6946,-5.2432 -3.6946,-8.5418 0,-3.2987 1.2433,-6.146 3.6946,-8.5418 l 74.6035,-72.918 c 2.4512,-2.3958 5.3643,-3.6111 8.7393,-3.6111 3.3749,0 6.288,1.2153 8.7392,3.6111 l 74.6035,72.918 c 2.4513,2.3958 3.6947,5.2431 3.6947,8.5418 0,3.2986 -1.2434,6.1459 -3.6947,8.5418 -2.4512,2.3959 -5.3643,3.6112 -8.7392,3.6112 h -38.261 l 78.085,76.5291 c 2.4513,2.3958 3.6947,5.2431 3.6947,8.5418 0,3.2986 -1.2434,6.1459 -3.6947,8.5418 -2.4513,2.3959 -5.3643,3.6112 -8.7393,3.6112 h -44.4779 l 78.0851,76.5291 c 2.4512,2.3959 3.6946,5.2431 3.6946,8.5418 z"
       id="path6228"
       style="fill:#195e23;fill-opacity:1;stroke-width:0.351218" /><path
       style="fill:#6d5529;fill-opacity:1;stroke-width:0.922422"
       id="path7070"
       sodipodi:type="arc"
       sodipodi:cx="1695.4893"
       sodipodi:cy="-1794.0807"
       sodipodi:rx="2701.7214"
       sodipodi:ry="221.93262"
       sodipodi:start="0"
       sodipodi:end="3.1238642"
       sodipodi:arc-type="arc"
       d="m 4397.2107,-1794.0807 a 2701.7214,221.93262 0 0 1 -2677.7731,221.9239 2701.7214,221.93262 0 0 1 -2725.2452,-217.9896"
       sodipodi:open="true"
       transform="scale(1,-1)" /><g
       transform="matrix(0.02306032,0,0,-0.01763016,2556.5996,918.2633)"
       id="g8897"
       style="fill:#ffffff;fill-opacity:1"><path
         d="M 1806,4859.8 C 1443.3,4800.3 1126.7,4690.9 714.1,4485.6 462.7,4358.9 138.4,4169 105.8,4130.6 c -26.9,-32.6 26.9,-61.4 403,-211.1 759.9,-301.3 1205.1,-591 1468,-959.5 80.6,-111.3 209.2,-403 295.5,-662 23,-69.1 48,-136.2 57.6,-149.7 7.7,-15.4 157.4,-59.5 330.1,-99.8 443.3,-103.6 610.2,-172.7 767.6,-320.5 122.8,-115.1 178.5,-214.9 239.9,-431.8 71,-245.6 67.2,-241.8 193.8,-255.2 153.5,-17.3 299.3,-59.5 353.1,-101.7 38.4,-32.6 44.1,-59.5 57.6,-266.7 9.6,-153.5 26.9,-264.8 55.6,-343.5 101.7,-282.1 99.8,-278.2 97.9,-548.8 l -1.9,-262.9 63.3,13.4 c 32.6,7.7 161.2,13.4 282.1,13.4 201.5,0 239.9,-5.8 441.3,-69.1 308.9,-97.9 314.7,-99.8 433.7,-61.4 l 103.6,32.6 55.6,-53.7 c 71,-69.1 126.7,-197.7 155.4,-360.8 l 23,-128.5 107.5,-21.1 c 307,-61.4 466.3,-132.4 600.6,-272.5 149.7,-151.6 276.3,-462.5 372.3,-911.5 l 34.5,-157.3 107.5,-30.7 c 232.2,-65.2 531.5,-168.9 623.7,-214.9 289.7,-145.8 541.1,-379.9 758,-706.2 151.6,-228.4 393.4,-702.3 520,-1026.6 44.1,-111.3 88.3,-209.2 97.9,-218.8 26.9,-28.8 57.6,23 247.5,401.1 193.8,389.5 322.4,746.5 397.2,1103.4 44.1,209.2 51.8,285.9 51.8,594.9 0,333.9 -3.8,372.3 -63.3,633.2 -84.4,366.5 -264.8,1026.6 -303.2,1101.5 -38.4,76.8 -99.8,143.9 -159.3,174.6 -27,13.6 -193.9,61.6 -374.3,105.7 -777.2,191.9 -1187.8,378 -1707.8,773.3 -167,128.6 -450.9,391.5 -450.9,420.2 0,9.6 46.1,61.4 101.7,117 53.7,55.7 126.7,153.5 161.2,216.8 55.6,101.7 72.9,119 143.9,140.1 264.8,80.6 418.3,239.9 418.3,433.7 0,168.9 -109.4,222.6 -468.2,236 l -249.5,9.6 -124.7,124.9 c -69.1,67.2 -163.1,147.8 -205.3,178.5 -44.2,28.8 -84.4,69.1 -92.1,84.4 -5.8,17.3 -11.5,111.3 -11.5,209.2 0,295.5 -72.9,447.1 -228.4,481.6 -199.6,44.1 -441.3,-188.1 -470.1,-449 -13.4,-117.1 -76.8,-214.9 -249.5,-383.8 -95.9,-94 -109.4,-101.7 -140.1,-76.8 -19.2,13.4 -120.9,101.7 -228.4,193.8 -472,404.9 -591,598.7 -869.2,1397 -339.7,974.8 -349.2,999.7 -424.1,1038.1 -48,23 -759.9,186.1 -1007.4,230.3 -303.2,51.8 -850.1,67.1 -1091.9,26.8 z"
         id="path8891"
         style="fill:#ffffff;fill-opacity:1" /><path
         d="m 1602.6,-1046.6 c -351.2,-159.3 -535.4,-320.5 -687,-606.4 l -84.4,-157.4 190,15.3 c 103.6,7.7 270.6,13.4 372.3,15.4 176.5,0 188.1,-1.9 287.8,-65.2 218.8,-140.1 234.1,-143.9 347.3,-105.5 55.6,19.2 149.7,34.5 207.2,34.5 88.3,1.9 122.8,-9.6 205.3,-61.4 82.5,-53.7 109.4,-61.4 174.6,-49.9 74.8,11.5 78.7,9.6 249.5,-153.5 95.9,-90.2 190,-165 211.1,-165 19.2,0 105.5,34.5 193.8,76.7 174.6,84.4 239.9,94 295.5,44.1 28.8,-26.8 71,-34.5 213,-34.5 h 174.6 l 115.1,-82.5 c 132.4,-92.1 241.8,-117.1 527.7,-119 216.8,0 272.5,-19.2 481.6,-155.4 97.9,-65.3 190,-120.9 203.4,-126.7 59.5,-23 -3.8,408.8 -90.2,602.5 -57.6,130.5 -174.6,278.2 -378,477.8 l -176.5,174.6 -226.4,-67.2 c -351.2,-103.6 -786.8,-107.5 -825.1,-9.6 -13.4,34.5 15.4,174.6 51.8,266.7 28.8,67.2 13.4,157.3 -30.7,174.6 -17.3,5.8 -63.3,-7.7 -103.6,-30.7 -80.6,-44.2 -207.2,-53.8 -274.4,-19.2 -23,13.4 -78.7,55.6 -122.8,95.9 -46,42.2 -92.1,74.8 -105.5,74.8 -65.2,-1.9 -78.7,-36.4 -92.1,-230.3 -7.7,-105.5 -19.2,-199.6 -26.9,-205.3 -25,-24.9 -268.6,30.7 -383.8,88.3 -65.2,32.6 -176.5,107.5 -251.4,166.9 -314.6,255.6 -358.8,265.2 -642.8,136.6 z"
         id="path8893"
         style="fill:#ffffff;fill-opacity:1" /><path
         d="m 950.2,-2800.5 c -61.4,-11.5 -268.6,-103.6 -268.6,-119 1.9,-5.8 63.3,-42.2 140.1,-78.7 105.5,-51.8 153.5,-88.3 205.3,-159.3 51.8,-71 84.4,-95.9 147.8,-111.3 92.1,-25 239.9,-165 284,-276.3 36.5,-82.5 95.9,-124.7 184.2,-124.7 44.1,0 80.6,-13.4 101.7,-36.5 19.2,-21.1 53.7,-42.2 78.7,-48 24.9,-5.8 74.8,-53.7 111.3,-103.6 40.3,-57.6 105.5,-117.1 170.8,-153.5 57.6,-30.7 142,-101.7 186.1,-155.4 46,-53.7 90.2,-97.9 99.8,-97.9 11.5,0 32.6,32.6 49.9,71 23,55.6 26.9,111.3 19.2,228.3 -19.2,268.6 -53.7,312.8 -307,391.5 -130.5,42.2 -243.7,103.6 -243.7,134.3 0,11.5 24.9,55.7 57.6,97.9 65.2,90.2 59.5,113.2 -19.2,113.2 -42.2,0 -71,19.2 -117.1,76.8 -74.8,92.1 -107.5,95.9 -128.6,15.3 -36.5,-143.9 -170.8,-63.3 -291.7,176.6 -76.8,151.6 -111.3,172.7 -278.2,170.8 -73,-1.9 -155.5,-7.6 -182.4,-11.5 z"
         id="path8895"
         style="fill:#ffffff;fill-opacity:1" /></g><g
       id="g8961"
       transform="matrix(0.60487375,0,0,0.60410678,1575.3128,1125.0748)"
       style="fill:#ffffff;fill-opacity:1"><g
         id="g8929"
         style="fill:#ffffff;fill-opacity:1"><g
           id="g8927"
           style="fill:#ffffff;fill-opacity:1"><path
             d="m 484.8,123.5 c 6,50.3 48.7,89.3 100.6,89.3 56,0 101.4,-45.4 101.4,-101.4 0,-56 -45.4,-101.4 -101.4,-101.4 -52.6,0 -95.8,40.1 -100.9,91.3 0.4,4.1 0.7,8.3 0.7,12.6 0,3.3 -0.2,6.5 -0.4,9.6 z"
             id="path8917"
             style="fill:#ffffff;fill-opacity:1" /><path
             d="m 585.5,216.4 c -10.2,-0.1 -24.7,2 -24.7,2 -0.1,0 -0.2,0 -0.2,0 -19.2,4.6 -37.9,14.5 -52.3,28.4 4.6,0.3 9.3,0.6 14.2,0.6 35.4,0 72.2,-12.8 82.5,-16.8 0,0 11.2,-5.7 8.5,-11.1 -1,-0.3 -1.9,-0.3 -2.9,-0.5 0,0.1 -14.9,-2.5 -25.1,-2.6 z"
             id="path8919"
             style="fill:#ffffff;fill-opacity:1" /><path
             d="m 684.4,287.5 c 16.8,-19.8 13.6,-42.7 2.9,-56.6 -13.3,-17.2 -38,-20.5 -55.2,-7.2 -5.4,4.1 -9.4,9.3 -11.9,15.1 -25.5,14.1 -108.3,37.4 -175.7,1 -1.3,-0.7 -2.6,-1.3 -4,-1.9 -12.5,-9.2 -27,-15.9 -41.8,-19.5 -0.1,0 -0.2,0 -0.3,0 0,0 -12.8,-2.1 -24.3,-2 -11.5,0 -25.4,2.3 -25.4,2.3 -12.7,3.1 -25.1,8.5 -36.2,15.8 -1.4,0.6 -2.8,1.2 -4.1,2 -49.8,30.5 -201.3,123.5 -90.2,327.6 7.1,13.1 20.6,20.6 34.6,20.6 6.4,0 12.8,-1.5 18.8,-4.8 3.1,-1.6 5.8,-3.7 8.2,-6 l 0.1,346 v 23.7 c 0,25.7 20.4,46.5 46.1,46.6 v 0 c 25.7,0 46.9,-20.8 46.9,-46.5 l -0.1,-323.4 c 0.4,0 0.8,0 1.1,0 1.8,0 3.7,-0.2 5.5,-0.2 l -0.1,102 0.1,0.1 v 221.4 c 0,25.7 20.8,46.5 46.5,46.5 25.7,0 46.5,-20.8 46.5,-46.5 V 588 566.5 c 0,-2.1 -0.2,-4.2 -0.5,-6.3 3.6,-9.1 5.7,-19 5.7,-29.6 V 333.5 c 16.7,3 33.3,4.5 49.6,4.5 73,0 137.4,-27.3 157.2,-50.5 z m -414.2,202 c -18.4,-48.1 -15,-84.1 0,-112.6 z"
             id="path8921"
             style="fill:#ffffff;fill-opacity:1" /><circle
             cx="374"
             cy="111.4"
             r="101.4"
             id="circle8923"
             style="fill:#ffffff;fill-opacity:1" /><path
             d="m 789.7,135 c -21.3,-4.1 -42,9.8 -46.1,31.1 -6,30.7 -30.6,115.1 -73.6,150.4 -32.3,20.8 -87.7,38.3 -147.1,38.3 -11.8,0 -23.6,-0.7 -35.3,-2.2 0,0 -3.3,186.5 -2.8,193.6 0.5,7.1 1.7,12 2.5,14 -0.3,2 -0.5,4.1 -0.5,6.2 v 377 c 0,25.7 20.8,46.5 46.5,46.5 25.7,0 46.5,-20.8 46.5,-46.5 V 619.9 c 1.8,0.1 3.7,0.2 5.5,0.2 0.4,0 0.7,0 1.1,0 v 323.4 c 0,25.7 20.8,46.5 46.5,46.5 25.7,0 46.5,-20.8 46.5,-46.5 v -382 c 9,-4 8,-20.7 8,-20.7 l -0.4,-138 24.2,-18.6 C 790.7,327.3 818,195.9 820.8,181 825,159.8 811,139.2 789.7,135 Z"
             id="path8925"
             style="fill:#ffffff;fill-opacity:1" /></g></g><g
         id="g8931"
         style="fill:#ffffff;fill-opacity:1" /><g
         id="g8933"
         style="fill:#ffffff;fill-opacity:1" /><g
         id="g8935"
         style="fill:#ffffff;fill-opacity:1" /><g
         id="g8937"
         style="fill:#ffffff;fill-opacity:1" /><g
         id="g8939"
         style="fill:#ffffff;fill-opacity:1" /><g
         id="g8941"
         style="fill:#ffffff;fill-opacity:1" /><g
         id="g8943"
         style="fill:#ffffff;fill-opacity:1" /><g
         id="g8945"
         style="fill:#ffffff;fill-opacity:1" /><g
         id="g8947"
         style="fill:#ffffff;fill-opacity:1" /><g
         id="g8949"
         style="fill:#ffffff;fill-opacity:1" /><g
         id="g8951"
         style="fill:#ffffff;fill-opacity:1" /><g
         id="g8953"
         style="fill:#ffffff;fill-opacity:1" /><g
         id="g8955"
         style="fill:#ffffff;fill-opacity:1" /><g
         id="g8957"
         style="fill:#ffffff;fill-opacity:1" /><g
         id="g8959"
         style="fill:#ffffff;fill-opacity:1" /></g><path
       d="m 2766.797,183.70073 c 28.0249,34.41813 40.1006,80.33254 32.6127,123.79141 -2.6476,15.56193 -6.8446,28.15631 -14.1405,43.00751 -20.0183,40.48795 -56.5046,70.19371 -100.0275,81.36664 -12.271,3.16291 -20.4056,4.261 -34.3541,4.64837 -22.2785,0.64672 -41.7174,-2.64755 -61.153,-10.3982 -7.8786,-3.16291 -7.8146,-3.35828 -3.1663,4.32837 8.5254,14.20784 25.8288,33.7074 38.7465,43.71823 17.3068,13.43311 37.3891,23.76394 57.2154,29.4464 58.4414,16.85538 121.4032,0.64673 164.4747,-42.36077 49.01,-48.94933 62.6351,-123.14806 34.2194,-186.62522 -19.7589,-44.1056 -59.7315,-78.65172 -106.2927,-91.88947 -12.847,-3.68164 -12.0083,-3.74564 -8.1346,0.96673 z"
       id="path10446"
       style="fill:#ffffff;fill-opacity:1;stroke-width:0.0336838" /></g></svg>
